# xmcd
#
# Track frame offsets:
#	150
#	18955
#	35698
#	56411
#	78063
#	93535
#	121905
#	145194
#	164918
#	186898
#	212659
#	248366
#	269857
#	292306
#	328117
#	345219
#
# Disc length: 4792 seconds
#
# Revision: 1
# Processed by: cddbd v1.5.2PL0 Copyright (c) Steve Scherf et al.
# Submitted via: EZCDAudioConverter 6.0.0.1
#
DISCID=ec12b610
DTITLE=Various Artist - Akella Presents - Modern Electric Blues - vol.16  CD1  New!
DYEAR=2013
DGENRE=Blues
TTITLE0=SCOTT ELLISON - Loaded Gun Tonight
TTITLE1=MICKY MOODY - Get Off My Back
TTITLE2=GUITAR SHORTY - Coffe and Cigarettes
TTITLE3=ERIC BURDON. - Feeling Blue
TTITLE4=GURF MORLIX - Diamonds to Dust
TTITLE5=PAUL CAMILLERI - When The Night Comes
TTITLE6=GURF MORLIX - I've Got a Passion
TTITLE7=VARGAS BLUES BAND - How Verso Are You
TTITLE8=BIG MIKE GRIFFIN - He Can't Do It
TTITLE9=RUDY ROTTA - St.James Infirmery
TTITLE10=PRESTON SHANNON - The Clock
TTITLE11=The JIMI VINCENT BAND - Your man
TTITLE12=BLEU JACKSON - 500% More Man
TTITLE13=The BLUES NOTIONS - Choice Of Poisons
TTITLE14=JIM SUHLER and MONKEY BEAT - Ain't Comin' Home Tonight 
TTITLE15=ELVIN BISHOP - Come On In This House
EXTD=
EXTT0=
EXTT1=
EXTT2=
EXTT3=
EXTT4=
EXTT5=
EXTT6=
EXTT7=
EXTT8=
EXTT9=
EXTT10=
EXTT11=
EXTT12=
EXTT13=
EXTT14=
EXTT15=
PLAYORDER=
